<svg id="Layer_1" data-name="Layer 1" xmlns="http://www.w3.org/2000/svg" xmlns:xlink="http://www.w3.org/1999/xlink" viewBox="0 0 73.33 73.33"><defs><style>.cls-1,.cls-2,.cls-3,.cls-77,.cls-79,.cls-81{fill:none;}.cls-2{clip-rule:evenodd;}.cls-3{fill-rule:evenodd;}.cls-4{clip-path:url(#clip-path);}.cls-5{clip-path:url(#clip-path-2);}.cls-6{clip-path:url(#clip-path-3);}.cls-7{clip-path:url(#clip-path-4);}.cls-8{clip-path:url(#clip-path-5);}.cls-9{clip-path:url(#clip-path-6);}.cls-10{clip-path:url(#clip-path-7);}.cls-11{clip-path:url(#clip-path-8);}.cls-12{clip-path:url(#clip-path-9);}.cls-13{clip-path:url(#clip-path-10);}.cls-14{clip-path:url(#clip-path-11);}.cls-15{clip-path:url(#clip-path-12);}.cls-16{clip-path:url(#clip-path-13);}.cls-17{clip-path:url(#clip-path-14);}.cls-18{clip-path:url(#clip-path-15);}.cls-19{clip-path:url(#clip-path-16);}.cls-20{clip-path:url(#clip-path-17);}.cls-21{clip-path:url(#clip-path-18);}.cls-22{clip-path:url(#clip-path-19);}.cls-23{clip-path:url(#clip-path-20);}.cls-24{clip-path:url(#clip-path-21);}.cls-25{clip-path:url(#clip-path-22);}.cls-26{clip-path:url(#clip-path-23);}.cls-27{clip-path:url(#clip-path-24);}.cls-28{clip-path:url(#clip-path-25);}.cls-29{clip-path:url(#clip-path-26);}.cls-30{clip-path:url(#clip-path-27);}.cls-31{clip-path:url(#clip-path-28);}.cls-32{clip-path:url(#clip-path-29);}.cls-33{clip-path:url(#clip-path-30);}.cls-34{clip-path:url(#clip-path-31);}.cls-35{clip-path:url(#clip-path-32);}.cls-36{clip-path:url(#clip-path-33);}.cls-37{clip-path:url(#clip-path-34);}.cls-38{clip-path:url(#clip-path-35);}.cls-39{clip-path:url(#clip-path-36);}.cls-40{clip-path:url(#clip-path-37);}.cls-41{clip-path:url(#clip-path-38);}.cls-42{clip-path:url(#clip-path-39);}.cls-43{clip-path:url(#clip-path-40);}.cls-44{clip-path:url(#clip-path-41);}.cls-45{clip-path:url(#clip-path-42);}.cls-46{clip-path:url(#clip-path-43);}.cls-47{clip-path:url(#clip-path-44);}.cls-48{clip-path:url(#clip-path-45);}.cls-49{clip-path:url(#clip-path-46);}.cls-50{clip-path:url(#clip-path-47);}.cls-51{clip-path:url(#clip-path-48);}.cls-52{clip-path:url(#clip-path-49);}.cls-53{clip-path:url(#clip-path-50);}.cls-54{clip-path:url(#clip-path-51);}.cls-55{clip-path:url(#clip-path-52);}.cls-56{clip-path:url(#clip-path-53);}.cls-57{clip-path:url(#clip-path-54);}.cls-58{clip-path:url(#clip-path-55);}.cls-59{clip-path:url(#clip-path-56);}.cls-60{clip-path:url(#clip-path-57);}.cls-61{clip-path:url(#clip-path-59);}.cls-62{clip-path:url(#clip-path-62);}.cls-63{clip-path:url(#clip-path-63);}.cls-64{clip-path:url(#clip-path-64);}.cls-65{clip-path:url(#clip-path-65);}.cls-66{clip-path:url(#clip-path-66);}.cls-67{clip-path:url(#clip-path-67);}.cls-68{clip-path:url(#clip-path-68);}.cls-69{clip-path:url(#clip-path-69);}.cls-70{clip-path:url(#clip-path-70);}.cls-71{clip-path:url(#clip-path-71);}.cls-72{clip-path:url(#clip-path-72);}.cls-73{clip-path:url(#clip-path-73);}.cls-74{clip-path:url(#clip-path-74);}.cls-75{clip-path:url(#clip-path-75);}.cls-76{fill:#fff;}.cls-77,.cls-79,.cls-81{stroke:#4178be;stroke-width:2px;}.cls-77,.cls-81{stroke-miterlimit:10;}.cls-78{clip-path:url(#clip-path-76);}.cls-79{stroke-linejoin:round;}.cls-80{clip-path:url(#clip-path-77);}.cls-81{stroke-linecap:square;}.cls-82{clip-path:url(#clip-path-78);}.cls-83{fill:#4178be;}.cls-84{clip-path:url(#clip-path-79);}.cls-85{clip-path:url(#clip-path-80);}.cls-86{clip-path:url(#clip-path-81);}.cls-87{clip-path:url(#clip-path-82);}</style><clipPath id="clip-path"><rect class="cls-1" x="-1786.99" y="553.67" width="416.41" height="150.53"/></clipPath><clipPath id="clip-path-2"><circle class="cls-1" cx="-349.84" cy="-49.52" r="33.88"/></clipPath><clipPath id="clip-path-3"><path class="cls-2" d="M-337.05-59.11H-362a1.27,1.27,0,0,0-1.28,1.27v24.3l3.72-4.82h21.22a1.28,1.28,0,0,0,1.27-1.27Z"/></clipPath><clipPath id="clip-path-4"><rect class="cls-1" x="-358.15" y="-46.33" width="15.98" height="1.28"/></clipPath><clipPath id="clip-path-5"><rect class="cls-1" x="-358.15" y="-50.16" width="15.98" height="1.28"/></clipPath><clipPath id="clip-path-6"><rect class="cls-1" x="-358.15" y="-54" width="15.98" height="1.28"/></clipPath><clipPath id="clip-path-7"><circle class="cls-1" cx="-337.69" cy="-60.39" r="5.11"/></clipPath><clipPath id="clip-path-8"><rect class="cls-1" x="-668.53" y="452.43" width="344.22" height="124.43"/></clipPath><clipPath id="clip-path-9"><rect class="cls-1" x="-547.53" y="478.43" width="94" height="75"/></clipPath><clipPath id="clip-path-10"><rect class="cls-1" x="-547.53" y="478.43" width="94" height="15.52"/></clipPath><clipPath id="clip-path-11"><path class="cls-2" d="M-535.78,486.19a3.9,3.9,0,0,1-3.92,3.88,3.9,3.9,0,0,1-3.92-3.88,3.9,3.9,0,0,1,3.92-3.88,3.9,3.9,0,0,1,3.92,3.88"/></clipPath><clipPath id="clip-path-12"><path class="cls-2" d="M-524,486.19a3.9,3.9,0,0,1-3.92,3.88,3.9,3.9,0,0,1-3.92-3.88,3.9,3.9,0,0,1,3.92-3.88,3.9,3.9,0,0,1,3.92,3.88"/></clipPath><clipPath id="clip-path-13"><path class="cls-2" d="M-512.28,486.19a3.9,3.9,0,0,1-3.92,3.88,3.9,3.9,0,0,1-3.92-3.88,3.9,3.9,0,0,1,3.92-3.88,3.9,3.9,0,0,1,3.92,3.88"/></clipPath><clipPath id="clip-path-14"><rect class="cls-1" x="-547.53" y="493.95" width="9.14" height="59.48"/></clipPath><clipPath id="clip-path-15"><path class="cls-2" d="M-542.3,501.71a1.3,1.3,0,0,0,1.31-1.29,1.3,1.3,0,0,0-1.31-1.29h-1.31a1.3,1.3,0,0,0-1.31,1.29,1.3,1.3,0,0,0,1.31,1.29Z"/></clipPath><clipPath id="clip-path-16"><path class="cls-2" d="M-542.3,504.29h-1.31a1.3,1.3,0,0,0-1.31,1.29,1.3,1.3,0,0,0,1.31,1.29h1.31a1.3,1.3,0,0,0,1.31-1.29,1.3,1.3,0,0,0-1.31-1.29"/></clipPath><clipPath id="clip-path-17"><path class="cls-2" d="M-542.3,509.47h-1.31a1.3,1.3,0,0,0-1.31,1.29,1.3,1.3,0,0,0,1.31,1.29h1.31a1.3,1.3,0,0,0,1.31-1.29,1.3,1.3,0,0,0-1.31-1.29"/></clipPath><clipPath id="clip-path-18"><path class="cls-2" d="M-542.3,514.64h-1.31a1.3,1.3,0,0,0-1.31,1.29,1.3,1.3,0,0,0,1.31,1.29h1.31a1.3,1.3,0,0,0,1.31-1.29,1.3,1.3,0,0,0-1.31-1.29"/></clipPath><clipPath id="clip-path-19"><path class="cls-2" d="M-542.3,519.81h-1.31a1.3,1.3,0,0,0-1.31,1.29,1.3,1.3,0,0,0,1.31,1.29h1.31A1.3,1.3,0,0,0-541,521.1a1.3,1.3,0,0,0-1.31-1.29"/></clipPath><clipPath id="clip-path-20"><path class="cls-2" d="M-542.3,525h-1.31a1.3,1.3,0,0,0-1.31,1.29,1.3,1.3,0,0,0,1.31,1.29h1.31a1.3,1.3,0,0,0,1.31-1.29A1.3,1.3,0,0,0-542.3,525"/></clipPath><clipPath id="clip-path-21"><path class="cls-2" d="M-542.3,530.16h-1.31a1.3,1.3,0,0,0-1.31,1.29,1.3,1.3,0,0,0,1.31,1.29h1.31a1.3,1.3,0,0,0,1.31-1.29,1.3,1.3,0,0,0-1.31-1.29"/></clipPath><clipPath id="clip-path-22"><path class="cls-2" d="M-542.3,535.33h-1.31a1.3,1.3,0,0,0-1.31,1.29,1.3,1.3,0,0,0,1.31,1.29h1.31a1.3,1.3,0,0,0,1.31-1.29,1.3,1.3,0,0,0-1.31-1.29"/></clipPath><clipPath id="clip-path-23"><path class="cls-2" d="M-542.3,540.5h-1.31a1.3,1.3,0,0,0-1.31,1.29,1.3,1.3,0,0,0,1.31,1.29h1.31a1.3,1.3,0,0,0,1.31-1.29,1.3,1.3,0,0,0-1.31-1.29"/></clipPath><clipPath id="clip-path-24"><path class="cls-2" d="M-542.3,545.67h-1.31a1.3,1.3,0,0,0-1.31,1.29,1.3,1.3,0,0,0,1.31,1.29h1.31A1.3,1.3,0,0,0-541,547a1.3,1.3,0,0,0-1.31-1.29"/></clipPath><clipPath id="clip-path-25"><polygon class="cls-2" points="-515.99 538.07 -500.33 538.2 -492.48 524.6 -523.32 524.3 -515.99 538.07"/></clipPath><clipPath id="clip-path-26"><polygon class="cls-2" points="-523.79 524.63 -516.07 538.26 -500.42 538.22 -515.91 510.74 -523.79 524.63"/></clipPath><clipPath id="clip-path-27"><polygon class="cls-2" points="-483.06 506.79 -498.72 506.67 -506.57 520.26 -475.73 520.56 -483.06 506.79"/></clipPath><clipPath id="clip-path-28"><polygon class="cls-2" points="-475.26 520.23 -482.99 506.61 -498.63 506.64 -483.15 534.12 -475.26 520.23"/></clipPath><clipPath id="clip-path-29"><rect class="cls-1" x="-668.83" y="614.39" width="343.72" height="124.63"/></clipPath><clipPath id="clip-path-30"><rect class="cls-1" x="-547.29" y="639.5" width="94.42" height="75.33"/></clipPath><clipPath id="clip-path-31"><rect class="cls-1" x="-547.29" y="639.5" width="94.42" height="15.59"/></clipPath><clipPath id="clip-path-32"><path class="cls-2" d="M-535.48,647.3a3.92,3.92,0,0,1-3.93,3.9,3.92,3.92,0,0,1-3.93-3.9,3.92,3.92,0,0,1,3.93-3.9,3.92,3.92,0,0,1,3.93,3.9"/></clipPath><clipPath id="clip-path-33"><path class="cls-2" d="M-523.68,647.3a3.92,3.92,0,0,1-3.93,3.9,3.92,3.92,0,0,1-3.93-3.9,3.92,3.92,0,0,1,3.93-3.9,3.92,3.92,0,0,1,3.93,3.9"/></clipPath><clipPath id="clip-path-34"><path class="cls-2" d="M-511.88,647.3a3.92,3.92,0,0,1-3.93,3.9,3.92,3.92,0,0,1-3.93-3.9,3.92,3.92,0,0,1,3.93-3.9,3.92,3.92,0,0,1,3.93,3.9"/></clipPath><clipPath id="clip-path-35"><rect class="cls-1" x="-547.29" y="655.09" width="9.18" height="59.75"/></clipPath><clipPath id="clip-path-36"><path class="cls-2" d="M-542,662.88a1.3,1.3,0,0,0,1.31-1.3,1.3,1.3,0,0,0-1.31-1.3h-1.31a1.3,1.3,0,0,0-1.31,1.3,1.3,1.3,0,0,0,1.31,1.3Z"/></clipPath><clipPath id="clip-path-37"><path class="cls-2" d="M-542,665.48h-1.31a1.3,1.3,0,0,0-1.31,1.3,1.3,1.3,0,0,0,1.31,1.3H-542a1.3,1.3,0,0,0,1.31-1.3,1.3,1.3,0,0,0-1.31-1.3"/></clipPath><clipPath id="clip-path-38"><path class="cls-2" d="M-542,670.67h-1.31a1.3,1.3,0,0,0-1.31,1.3,1.3,1.3,0,0,0,1.31,1.3H-542a1.3,1.3,0,0,0,1.31-1.3,1.3,1.3,0,0,0-1.31-1.3"/></clipPath><clipPath id="clip-path-39"><path class="cls-2" d="M-542,675.87h-1.31a1.3,1.3,0,0,0-1.31,1.3,1.3,1.3,0,0,0,1.31,1.3H-542a1.3,1.3,0,0,0,1.31-1.3,1.3,1.3,0,0,0-1.31-1.3"/></clipPath><clipPath id="clip-path-40"><path class="cls-2" d="M-542,681.07h-1.31a1.3,1.3,0,0,0-1.31,1.3,1.3,1.3,0,0,0,1.31,1.3H-542a1.3,1.3,0,0,0,1.31-1.3,1.3,1.3,0,0,0-1.31-1.3"/></clipPath><clipPath id="clip-path-41"><path class="cls-2" d="M-542,686.26h-1.31a1.3,1.3,0,0,0-1.31,1.3,1.3,1.3,0,0,0,1.31,1.3H-542a1.3,1.3,0,0,0,1.31-1.3,1.3,1.3,0,0,0-1.31-1.3"/></clipPath><clipPath id="clip-path-42"><path class="cls-2" d="M-542,691.46h-1.31a1.3,1.3,0,0,0-1.31,1.3,1.3,1.3,0,0,0,1.31,1.3H-542a1.3,1.3,0,0,0,1.31-1.3,1.3,1.3,0,0,0-1.31-1.3"/></clipPath><clipPath id="clip-path-43"><path class="cls-2" d="M-542,696.65h-1.31a1.3,1.3,0,0,0-1.31,1.3,1.3,1.3,0,0,0,1.31,1.3H-542a1.3,1.3,0,0,0,1.31-1.3,1.3,1.3,0,0,0-1.31-1.3"/></clipPath><clipPath id="clip-path-44"><path class="cls-2" d="M-542,701.85h-1.31a1.3,1.3,0,0,0-1.31,1.3,1.3,1.3,0,0,0,1.31,1.3H-542a1.3,1.3,0,0,0,1.31-1.3,1.3,1.3,0,0,0-1.31-1.3"/></clipPath><clipPath id="clip-path-45"><path class="cls-2" d="M-542,707h-1.31a1.3,1.3,0,0,0-1.31,1.3,1.3,1.3,0,0,0,1.31,1.3H-542a1.3,1.3,0,0,0,1.31-1.3A1.3,1.3,0,0,0-542,707"/></clipPath><clipPath id="clip-path-46"><path class="cls-2" d="M-504.57,688.48h-.38c-6.51,0-11.78-5-11.78-11.15s5.28-11.15,11.78-11.15,11.78,5,11.78,11.15a10.81,10.81,0,0,1-3.41,7.84l-8,9.46Z"/></clipPath><clipPath id="clip-path-47"><path class="cls-2" d="M-486.46,699.43h.48c8.36,0,15.14-6.41,15.14-14.32s-6.78-14.32-15.14-14.32-15.14,6.41-15.14,14.32a13.89,13.89,0,0,0,4.38,10.07l10.27,12.15Z"/></clipPath><clipPath id="clip-path-48"><ellipse class="cls-1" cx="-491.34" cy="685.59" rx="1.95" ry="1.85"/></clipPath><clipPath id="clip-path-49"><ellipse class="cls-1" cx="-485.48" cy="685.59" rx="1.95" ry="1.85"/></clipPath><clipPath id="clip-path-50"><ellipse class="cls-1" cx="-479.63" cy="685.59" rx="1.95" ry="1.85"/></clipPath><clipPath id="clip-path-51"><ellipse class="cls-1" cx="-350.02" cy="34.57" rx="33.84" ry="33.92"/></clipPath><clipPath id="clip-path-52"><path class="cls-2" d="M-341.83,27.09a1.27,1.27,0,0,1,1.27-1.28h6.08a1.28,1.28,0,0,1,1.27,1.28v21a1.27,1.27,0,0,1-1.27,1.28h-6.08a1.28,1.28,0,0,1-1.27-1.28Z"/></clipPath><clipPath id="clip-path-53"><rect class="cls-1" x="-363.86" y="40.69" width="8.62" height="8.64" rx="1.27" ry="1.27"/></clipPath><clipPath id="clip-path-54"><path class="cls-2" d="M-352.85,34.78a1.27,1.27,0,0,1,1.27-1.28h6.08a1.27,1.27,0,0,1,1.27,1.28V48.05a1.27,1.27,0,0,1-1.27,1.28h-6.08a1.27,1.27,0,0,1-1.27-1.28Z"/></clipPath><clipPath id="clip-path-55"><ellipse class="cls-1" cx="-349.63" cy="114.15" rx="33.84" ry="33.92"/></clipPath><clipPath id="clip-path-56"><ellipse class="cls-1" cx="-336.21" cy="121.51" rx="9.26" ry="9.28"/></clipPath><clipPath id="clip-path-57"><polygon class="cls-2" points="-337.48 123.68 -340.25 120.76 -341.47 122.02 -337.48 126.19 -329.98 118.49 -331.19 117.23 -337.48 123.68"/></clipPath><clipPath id="clip-path-59"><path class="cls-2" d="M-354.9,110.85a7.36,7.36,0,0,1-2.23-5.3,7.25,7.25,0,0,1,7.19-7.32,7.25,7.25,0,0,1,7.19,7.32,7.36,7.36,0,0,1-2.1,5.17A13.88,13.88,0,0,1-336,123.83h-27.45A13.91,13.91,0,0,1-354.9,110.85Z"/></clipPath><clipPath id="clip-path-62"><circle class="cls-1" cx="-242.36" cy="-49.99" r="34"/></clipPath><clipPath id="clip-path-63"><path class="cls-2" d="M-229.53-59.61h-25a1.28,1.28,0,0,0-1.29,1.28V-34l3.73-4.84h21.29a1.28,1.28,0,0,0,1.28-1.27Z"/></clipPath><clipPath id="clip-path-64"><rect class="cls-1" x="-250.7" y="-46.78" width="16.04" height="1.28"/></clipPath><clipPath id="clip-path-65"><rect class="cls-1" x="-250.7" y="-50.63" width="16.04" height="1.28"/></clipPath><clipPath id="clip-path-66"><rect class="cls-1" x="-250.7" y="-54.48" width="16.04" height="1.28"/></clipPath><clipPath id="clip-path-67"><circle class="cls-1" cx="-230.18" cy="-60.9" r="5.13"/></clipPath><clipPath id="clip-path-68"><ellipse class="cls-1" cx="-243.95" cy="34.14" rx="33.84" ry="33.92"/></clipPath><clipPath id="clip-path-69"><path class="cls-2" d="M-235.79,26.5a1.27,1.27,0,0,1,1.27-1.28h6.08a1.28,1.28,0,0,1,1.27,1.28v21a1.27,1.27,0,0,1-1.27,1.28h-6.08a1.28,1.28,0,0,1-1.27-1.28Z"/></clipPath><clipPath id="clip-path-70"><rect class="cls-1" x="-257.79" y="40.22" width="8.62" height="8.64" rx="1.27" ry="1.27"/></clipPath><clipPath id="clip-path-71"><path class="cls-2" d="M-246.79,34.5a1.27,1.27,0,0,1,1.27-1.28h6.08a1.27,1.27,0,0,1,1.27,1.28V47.77a1.27,1.27,0,0,1-1.27,1.28h-6.08a1.27,1.27,0,0,1-1.27-1.28Z"/></clipPath><clipPath id="clip-path-72"><path class="cls-2" d="M-249,110.32a7.36,7.36,0,0,1-2.23-5.3A7.25,7.25,0,0,1-244,97.7a7.25,7.25,0,0,1,7.19,7.32,7.36,7.36,0,0,1-2.1,5.17,13.88,13.88,0,0,1,8.85,13.11h-27.45A13.91,13.91,0,0,1-249,110.32Z"/></clipPath><clipPath id="clip-path-73"><ellipse class="cls-1" cx="-230.26" cy="120.98" rx="9.26" ry="9.28"/></clipPath><clipPath id="clip-path-74"><polygon class="cls-2" points="-231.53 123.15 -234.3 120.23 -235.52 121.48 -231.53 125.66 -224.03 117.96 -225.25 116.7 -231.53 123.15"/></clipPath><clipPath id="clip-path-75"><circle class="cls-1" cx="36.83" cy="36.7" r="35.5"/></clipPath><clipPath id="clip-path-76"><path class="cls-2" d="M17.33,24.2a1,1,0,0,1,1-1h37a1,1,0,0,1,1,1v22a1,1,0,0,1-1,1h-37a1,1,0,0,1-1-1Z"/></clipPath><clipPath id="clip-path-77"><path class="cls-2" d="M47.33,31.2a1,1,0,0,1,1-1h12a1,1,0,0,1,1,1v22a1,1,0,0,1-1,1h-12a1,1,0,0,1-1-1Z"/></clipPath><clipPath id="clip-path-78"><rect class="cls-1" x="47.33" y="48.2" width="14" height="6"/></clipPath><clipPath id="clip-path-79"><circle class="cls-1" cx="54.33" cy="51.2" r="1"/></clipPath><clipPath id="clip-path-80"><rect class="cls-1" x="10.33" y="38" width="10" height="10.4" rx="2.4" ry="2.4"/></clipPath><clipPath id="clip-path-81"><path class="cls-2" d="M11.87,34a.79.79,0,0,1,.79-.79H18a.8.8,0,0,1,.79.79v4H11.87Z"/></clipPath><clipPath id="clip-path-82"><path class="cls-2" d="M11.87,48.4h6.92v4a.79.79,0,0,1-.79.79H12.67a.8.8,0,0,1-.79-.79Z"/></clipPath></defs><title>Artboard 37</title><g class="cls-75"><rect class="cls-76" x="-3.67" y="-3.8" width="81" height="81"/></g><circle class="cls-77" cx="36.83" cy="36.7" r="35.5"/><g class="cls-78"><rect class="cls-76" x="12.33" y="18.2" width="49" height="34"/></g><path class="cls-77" d="M17.33,24.2a1,1,0,0,1,1-1h37a1,1,0,0,1,1,1v22a1,1,0,0,1-1,1h-37a1,1,0,0,1-1-1Z"/><path class="cls-79" d="M12.33,47.2h49v2a2,2,0,0,1-2,2h-45a2,2,0,0,1-2-2Z"/><g class="cls-80"><rect class="cls-76" x="42.33" y="25.2" width="24" height="34"/></g><path class="cls-77" d="M47.33,31.2a1,1,0,0,1,1-1h12a1,1,0,0,1,1,1v22a1,1,0,0,1-1,1h-12a1,1,0,0,1-1-1Z"/><line class="cls-81" x1="47.62" y1="48.2" x2="61.04" y2="48.2"/><g class="cls-82"><rect class="cls-83" x="42.33" y="43.2" width="24" height="16"/></g><g class="cls-84"><rect class="cls-76" x="48.33" y="45.2" width="12" height="12"/></g><g class="cls-85"><rect class="cls-83" x="5.33" y="33" width="20" height="20.4"/></g><rect class="cls-77" x="10.33" y="38" width="10" height="10.4" rx="2.4" ry="2.4"/><g class="cls-86"><rect class="cls-76" x="6.87" y="28.2" width="16.92" height="14.8"/></g><path class="cls-77" d="M11.87,34a.79.79,0,0,1,.79-.79H18a.8.8,0,0,1,.79.79v4H11.87Z"/><g class="cls-87"><rect class="cls-76" x="6.87" y="43.4" width="16.92" height="14.8"/></g><path class="cls-77" d="M11.87,48.4h6.92v4a.79.79,0,0,1-.79.79H12.67a.8.8,0,0,1-.79-.79Z"/></svg>