<svg id="Layer_1" data-name="Layer 1" xmlns="http://www.w3.org/2000/svg" xmlns:xlink="http://www.w3.org/1999/xlink" viewBox="0 0 219 149"><defs><style>.cls-1{fill:none;}.cls-2{fill:#00b4a0;}.cls-3{clip-path:url(#clip-path);}.cls-4{clip-path:url(#clip-path-2);}.cls-5{clip-path:url(#clip-path-3);}.cls-6{fill:#41d6c3;}</style><clipPath id="clip-path"><rect class="cls-1" x="-270.32" y="-574.33" width="416.41" height="150.53"/></clipPath><clipPath id="clip-path-2"><rect class="cls-1" x="261.53" y="-594.4" width="415.63" height="150.71"/></clipPath><clipPath id="clip-path-3"><rect class="cls-2" x="0.1" y="-0.23" width="219" height="150"/></clipPath></defs><title>Artboard 7</title><rect class="cls-2" x="0.1" y="-0.23" width="219" height="150"/><g class="cls-5"><rect class="cls-2" x="-4.9" y="-5.23" width="229" height="160"/></g><circle class="cls-6" cx="22.57" cy="16.72" r="9.97"/><path class="cls-6" d="M22.57,37a8,8,0,1,1-8,8,8,8,0,0,1,8-8m0-2a10,10,0,1,0,10,10,10,10,0,0,0-10-10Z"/><circle class="cls-6" cx="22.57" cy="73.16" r="9.97"/><circle class="cls-6" cx="22.57" cy="103.08" r="9.97"/><path class="cls-6" d="M22.57,124a8,8,0,1,1-8,8,8,8,0,0,1,8-8m0-2a10,10,0,1,0,10,10,10,10,0,0,0-10-10Z"/><circle class="cls-6" cx="141" cy="44.94" r="9.97"/><path class="cls-6" d="M141,65.18a8,8,0,1,1-8,8,8,8,0,0,1,8-8m0-2a10,10,0,1,0,10,10,10,10,0,0,0-10-10Z"/><circle class="cls-6" cx="141" cy="103.08" r="9.97"/><circle class="cls-6" cx="141" cy="132" r="9.97"/><circle class="cls-6" cx="170.61" cy="132" r="9.97"/><circle class="cls-6" cx="170.61" cy="103.08" r="9.97"/><circle class="cls-6" cx="170.61" cy="16.72" r="9.97"/><circle class="cls-6" cx="170.61" cy="44.94" r="9.97"/><circle class="cls-6" cx="170.61" cy="73.16" r="9.97"/><circle class="cls-6" cx="200.22" cy="103.08" r="9.97"/><circle class="cls-6" cx="200.22" cy="132" r="9.97"/><path class="cls-6" d="M200.22,37.08a8,8,0,1,1-8,8,8,8,0,0,1,8-8m0-2a10,10,0,1,0,10,10,10,10,0,0,0-10-10Z"/><circle class="cls-6" cx="81.78" cy="73.16" r="9.97"/><path class="cls-6" d="M81.78,95.1a8,8,0,1,1-8,8,8,8,0,0,1,8-8m0-2a10,10,0,1,0,10,10,10,10,0,0,0-10-10Z"/><circle class="cls-6" cx="81.78" cy="132" r="9.97"/><path class="cls-6" d="M81.78,37.85a8,8,0,1,1-8,8,8,8,0,0,1,8-8m0-2a10,10,0,1,0,10,10,10,10,0,0,0-10-10Z"/><path class="cls-6" d="M81.78,8.18a8,8,0,1,1-8,8,8,8,0,0,1,8-8m0-2a10,10,0,1,0,10,10,10,10,0,0,0-10-10Z"/><circle class="cls-6" cx="52.17" cy="103.08" r="9.97"/><circle class="cls-6" cx="52.17" cy="132" r="9.97"/><circle class="cls-6" cx="52.17" cy="46.05" r="9.97"/><path class="cls-6" d="M52.17,8.41a8,8,0,1,1-8,8,8,8,0,0,1,8-8m0-2a10,10,0,1,0,10,10,10,10,0,0,0-10-10Z"/><circle class="cls-6" cx="111.39" cy="103.08" r="9.97"/><circle class="cls-6" cx="111.39" cy="16.72" r="9.97"/><path class="cls-6" d="M111.39,38.44a8,8,0,1,1-8,8,8,8,0,0,1,8-8m0-2a10,10,0,1,0,10,10,10,10,0,0,0-10-10Z"/></svg>